<svg xmlns="http://www.w3.org/2000/svg" xmlns:xlink="http://www.w3.org/1999/xlink" width="572.348" height="791.692" viewBox="0 0 572.348 791.692">
  <defs>
    <linearGradient id="linear-gradient" x1="-0.281" y1="-0.12" x2="1.177" y2="0.652" gradientUnits="objectBoundingBox">
      <stop offset="0" stop-color="#7ad8eb"/>
      <stop offset="0.158" stop-color="#2fc2df"/>
      <stop offset="1" stop-color="#eefafc"/>
    </linearGradient>
  </defs>
  <path id="Subtraction_1" data-name="Subtraction 1" d="M24675.785,6590.692h-.033a537.539,537.539,0,0,1-54.344-2.812c-17.873-1.825-36.18-4.572-54.408-8.166V5932.99c26,5.083,56.605,10.844,86.461,15.027,30.26,4.24,55.887,6.3,78.35,6.3,38.189,0,68.184-5.969,91.691-18.248a114.1,114.1,0,0,0,17.725-11.419,107.736,107.736,0,0,0,15.3-14.717,115.447,115.447,0,0,0,12.689-18.291,139.723,139.723,0,0,0,9.91-22.143c8.27-23.626,19.471-41.67,33.293-53.631a69.613,69.613,0,0,1,21.2-12.746,66.251,66.251,0,0,1,23.25-4.123c12.705,0,26.086,3.363,39.77,10,13.482,6.533,26.969,16.095,40.086,28.419a262.437,262.437,0,0,1,37.334,44.489,352.829,352.829,0,0,1,31.518,58.207,407.037,407.037,0,0,1,18.371,52.666,432.069,432.069,0,0,1,11.709,58.328,447.154,447.154,0,0,1-2.154,129.344c-1.846,11.4-4.162,22.9-6.883,34.2-2.787,11.57-6.076,23.236-9.775,34.674-3.789,11.714-8.107,23.5-12.836,35.017-4.846,11.805-10.254,23.656-16.074,35.224-5.957,11.843-12.514,23.719-19.486,35.3-7.133,11.845-14.9,23.7-23.074,35.238-8.365,11.8-17.393,23.591-26.836,35.044-9.652,11.708-20.006,23.389-30.771,34.716a442.71,442.71,0,0,1-34.092,32.285,417.43,417.43,0,0,1-35.928,27.335,402.171,402.171,0,0,1-76.5,40.62,413.364,413.364,0,0,1-40.133,13.681c-13.357,3.8-27.186,7.007-41.1,9.527-13.65,2.471-27.73,4.346-41.85,5.571C24704.311,6590.081,24690.053,6590.691,24675.785,6590.692Z" transform="translate(-24567 -5799)" fill="url(#linear-gradient)"/>
</svg>
